<svg version="1.1" id="Layer_1" xmlns="http://www.w3.org/2000/svg" xmlns:xlink="http://www.w3.org/1999/xlink" x="0px" y="0px"
	 width="100%" viewBox="0 0 609 173" enable-background="new 0 0 609 173" xml:space="preserve">
<path fill="#FCFEFE" opacity="1.000000" stroke="none" 
	d="
M473.000000,174.000000 
	C315.333344,174.000000 158.166672,174.000000 1.000000,174.000000 
	C1.000000,116.333336 1.000000,58.666668 1.000000,1.000000 
	C204.000000,1.000000 407.000000,1.000000 610.000000,1.000000 
	C610.000000,58.666668 610.000000,116.333336 610.000000,174.000000 
	C564.500000,174.000000 519.000000,174.000000 473.000000,174.000000 
M467.499908,167.568024 
	C512.732849,167.568024 557.965759,167.568024 603.220581,167.568024 
	C603.220581,113.686607 603.220581,60.618965 603.220581,7.446958 
	C459.680573,7.446958 316.488342,7.446958 173.067291,7.446958 
	C173.067291,60.820862 173.067291,113.903809 173.067291,167.567642 
	C270.996918,167.567642 368.748383,167.567642 467.499908,167.568024 
M165.156525,7.179857 
	C112.588425,7.179857 60.020329,7.179857 7.552998,7.179857 
	C7.552998,26.672632 7.552998,45.394505 7.552998,63.997978 
	C10.687533,63.997978 13.407785,63.997978 16.651567,63.997978 
	C16.651567,48.994549 16.651567,34.418835 16.651567,19.772808 
	C22.942837,19.772808 28.690771,19.772808 34.954826,19.772808 
	C34.954826,55.335228 34.954826,90.561806 34.954826,125.924767 
	C57.007114,125.924767 78.536453,125.924767 100.065788,125.924767 
	C82.761124,119.570534 67.384239,110.351471 54.409439,96.787125 
	C91.786514,96.787125 129.163589,96.787125 166.655121,96.787125 
	C166.809601,95.699677 166.977570,95.067619 166.977921,94.435463 
	C166.993500,66.443428 167.004211,38.451374 166.958450,10.459410 
	C166.956726,9.403569 166.390427,8.348652 165.156525,7.179857 
M87.500198,137.538605 
	C60.883080,137.538605 34.265961,137.538605 7.501835,137.538605 
	C7.501835,147.697632 7.501835,157.393158 7.501835,167.316284 
	C60.750011,167.316284 113.647598,167.316284 166.693665,167.316284 
	C166.693665,157.341293 166.693665,147.629868 166.693665,137.539154 
	C140.423904,137.539154 114.462059,137.539154 87.500198,137.538605 
M7.111002,103.499954 
	C7.111002,110.927933 7.111002,118.355911 7.111002,125.814713 
	C10.532700,125.814713 13.396308,125.814713 16.282669,125.814713 
	C16.282669,108.583290 16.282669,91.739647 16.282669,74.750938 
	C13.063322,74.750938 10.196177,74.750938 7.111053,74.750938 
	C7.111053,84.252686 7.111053,93.376320 7.111002,103.499954 
M12.355935,67.965202 
	C10.639662,68.557228 8.923389,69.149254 7.207119,69.741287 
	C8.922392,70.172447 10.634959,70.614990 12.355435,71.024284 
	C12.664789,71.097878 13.041854,71.126610 13.327391,71.017838 
	C14.399786,70.609344 15.447221,70.135330 16.504009,69.685867 
	C15.410098,69.112396 14.316188,68.538925 12.355935,67.965202 
z"/>
<path fill="#53AE35" opacity="1.000000" stroke="none" 
	d="
M466.999878,167.567841 
	C368.748383,167.567642 270.996918,167.567642 173.067291,167.567642 
	C173.067291,113.903809 173.067291,60.820862 173.067291,7.446958 
	C316.488342,7.446958 459.680573,7.446958 603.220581,7.446958 
	C603.220581,60.618965 603.220581,113.686607 603.220581,167.568024 
	C557.965759,167.568024 512.732849,167.568024 466.999878,167.567841 
M403.401154,78.729706 
	C399.889832,72.594528 396.378510,66.459358 392.895172,60.373104 
	C394.539581,58.749081 395.993896,57.595013 397.101868,56.171413 
	C402.946106,48.662437 399.895203,37.714005 391.189545,36.312565 
	C385.758148,35.438221 380.071411,36.150024 374.122955,36.150024 
	C374.122955,49.963768 374.117035,63.403934 374.135468,76.844070 
	C374.136780,77.806618 374.316284,78.768921 374.421051,79.811951 
	C376.519287,79.811951 378.384888,79.811951 380.770233,79.811951 
	C380.770233,73.702705 380.770233,67.962662 380.770233,62.421398 
	C385.044250,61.075283 387.387115,62.185238 389.084656,65.961494 
	C391.380585,71.068962 394.324585,75.885094 396.998871,80.841629 
	C399.575775,80.241409 401.804443,79.722305 404.561981,79.958549 
	C408.511139,81.014114 410.476746,79.485855 411.751801,75.553909 
	C414.492035,67.103821 414.736145,67.612846 423.631714,67.021393 
	C429.710510,66.617233 432.996277,68.517738 433.817810,74.520416 
	C434.554993,79.906914 437.670990,81.314964 443.005707,79.636314 
	C438.027832,66.295891 433.120544,52.951565 428.001129,39.689121 
	C427.414459,38.169304 425.461243,35.943401 424.461578,36.099117 
	C422.871185,36.346836 420.882812,38.042488 420.220215,39.613800 
	C414.677795,52.757870 409.399994,66.013519 403.401154,78.729706 
M332.181763,77.818863 
	C332.181763,63.894325 332.181763,49.969784 332.181763,36.293011 
	C327.904236,35.065933 325.726349,36.229404 324.075165,39.772243 
	C321.059448,46.243034 317.491638,52.455772 314.180511,58.789932 
	C312.141724,62.690098 310.151794,66.615807 307.813782,71.164551 
	C302.734863,60.452980 297.867798,50.803276 293.593536,40.897778 
	C291.642059,36.375313 289.051575,34.787209 284.264221,36.267082 
	C284.264221,50.776649 284.264221,65.347534 284.264221,80.229576 
	C286.131927,80.091171 287.698792,79.975060 289.827393,79.817322 
	C289.827393,69.128334 289.827393,58.830929 289.827393,48.533524 
	C295.029510,57.902931 299.452026,67.331207 304.017944,76.689522 
	C304.662048,78.009644 306.006500,78.988091 307.026794,80.124687 
	C308.066040,78.984924 309.407166,78.002533 310.096436,76.680344 
	C315.276520,66.743706 320.328217,56.740135 326.109467,45.405964 
	C326.109467,57.897438 326.109467,68.933723 326.109467,80.272964 
	C328.403717,80.087059 330.203186,79.941246 332.850433,79.998634 
	C336.925629,80.998795 339.403046,79.767014 340.325806,75.353455 
	C340.894775,72.631996 342.256714,70.076324 343.367188,67.172966 
	C346.077301,67.172966 348.721741,67.172966 351.366180,67.172966 
	C359.781952,67.172966 360.109528,67.077927 362.438507,75.105652 
	C363.910797,80.180603 366.629639,81.039642 371.528320,79.576187 
	C366.274719,65.411957 361.130707,51.420681 355.808258,37.497601 
	C355.489563,36.663849 353.673035,35.838634 352.682465,35.971424 
	C351.497955,36.130207 349.921814,37.077732 349.438904,38.114033 
	C347.408752,42.470444 345.789154,47.015636 343.898041,51.439903 
	C340.004089,60.549889 336.032501,69.626694 332.181763,77.818863 
M492.314209,41.150692 
	C482.554626,33.381058 471.279694,36.402073 460.463959,35.842255 
	C460.463959,51.066605 460.463959,65.462959 460.463959,80.055077 
	C465.948303,80.055077 471.097900,80.250137 476.227356,80.011810 
	C485.116608,79.598785 492.671265,76.321495 496.306152,67.702286 
	C500.164490,58.553326 499.959076,49.532108 492.314209,41.150692 
M530.063965,36.109116 
	C529.098633,35.855747 528.143311,35.552979 527.166504,35.356514 
	C514.840637,32.877327 503.333679,40.312458 500.824127,52.363071 
	C498.021301,65.822113 505.423248,77.985771 518.002136,80.591835 
	C529.306885,82.933922 539.942383,76.736465 543.485474,65.742218 
	C547.547363,53.138424 542.661865,41.816742 530.063965,36.109116 
M513.916870,138.952255 
	C514.912903,138.973831 515.908875,139.013245 516.904907,139.014221 
	C526.124084,139.023270 533.006714,135.030563 536.602356,126.505264 
	C540.502441,117.258057 540.056458,108.189178 532.905334,100.524811 
	C526.315857,93.462379 517.953369,92.279358 509.075104,95.147270 
	C500.099640,98.046570 494.632202,106.844109 494.992065,116.967598 
	C495.398987,128.414902 501.600403,135.931412 513.916870,138.952255 
M220.144943,94.409439 
	C215.852158,94.409439 211.559387,94.409439 207.100891,94.409439 
	C207.100891,109.221909 207.100891,123.464096 207.100891,138.129669 
	C212.658188,138.129669 217.958954,138.338943 223.237839,138.088120 
	C236.047180,137.479507 244.291580,128.719620 244.581451,115.688034 
	C244.850616,103.587036 237.699753,96.139931 224.533020,94.804398 
	C223.374283,94.686859 222.217834,94.546921 220.144943,94.409439 
M447.990082,127.479889 
	C447.990082,130.926880 447.990082,134.373886 447.990082,137.975891 
	C454.521759,137.975891 460.523834,138.428864 466.432373,137.878250 
	C477.518616,136.845123 484.954865,128.873611 485.840485,117.871117 
	C486.765259,106.382118 481.609650,97.922096 470.967407,95.760063 
	C463.607697,94.264877 455.890045,94.531418 447.990082,93.987144 
	C447.990082,105.524841 447.990082,116.004402 447.990082,127.479889 
M357.652954,94.382065 
	C354.315308,94.309593 355.155151,96.809059 355.140167,98.629051 
	C355.070312,107.111473 355.271637,115.600731 354.998169,124.075356 
	C354.792480,130.449661 350.489197,134.528244 344.612366,134.625443 
	C338.579956,134.725220 334.718536,131.374588 333.980530,125.054993 
	C333.615601,121.930199 333.661713,118.749886 333.641205,115.593918 
	C333.596222,108.668510 333.627258,101.742615 333.627258,94.839783 
	C331.032471,94.839783 329.171814,94.839783 327.546051,94.839783 
	C327.546051,105.597633 326.854584,115.953178 327.748077,126.170113 
	C328.577209,135.651123 335.161255,139.593384 346.246826,139.022720 
	C354.580994,138.593704 360.624603,132.927155 360.991882,124.411041 
	C361.378510,115.445450 361.240662,106.451813 361.075745,97.475143 
	C361.056519,96.428551 359.408051,95.411903 357.652954,94.382065 
M437.054199,130.483566 
	C433.052032,119.753876 429.125916,108.994507 424.962646,98.327705 
	C424.363251,96.792015 422.286102,94.451469 421.479279,94.668053 
	C419.835388,95.109352 418.041534,96.783257 417.283173,98.404724 
	C414.754547,103.811287 412.636200,109.410980 410.398010,114.951775 
	C407.336609,122.530403 404.309540,130.122894 401.270844,137.701706 
	C405.806976,139.215332 407.870941,137.605118 409.030609,133.653915 
	C409.837158,130.905838 411.032013,126.570183 412.817322,126.143990 
	C417.373566,125.056335 422.521820,125.050446 427.087555,126.106400 
	C428.853119,126.514725 430.233307,130.836548 430.827942,133.583511 
	C431.998260,138.989639 435.224030,138.682953 439.595184,137.612640 
	C438.747955,135.268570 438.022736,133.262131 437.054199,130.483566 
M252.818054,54.261665 
	C249.391434,62.676449 245.964813,71.091232 242.538193,79.506020 
	C242.931213,79.979149 243.324219,80.452278 243.717239,80.925407 
	C245.643860,79.810326 249.055267,78.916512 249.259689,77.544785 
	C250.751205,67.535988 256.997864,65.777870 265.524597,67.144188 
	C266.814911,67.350937 268.166840,67.173004 269.673523,67.173004 
	C270.716217,69.957817 272.038513,72.514542 272.612213,75.229454 
	C273.722046,80.481102 276.681244,81.219521 281.490540,79.339951 
	C276.469818,65.845940 271.551392,52.445297 266.424164,39.125038 
	C265.906250,37.779537 263.989838,35.928524 262.966522,36.070568 
	C261.499298,36.274239 259.710724,37.834579 259.018951,39.276184 
	C256.793732,43.913445 255.008636,48.761913 252.818054,54.261665 
M312.437195,96.875092 
	C305.754211,93.315468 298.705292,94.512207 291.780029,94.497955 
	C291.780029,109.486603 291.780029,123.690453 291.780029,137.891388 
	C293.951202,137.891388 295.700653,137.891388 298.038086,137.891388 
	C298.038086,124.873169 298.038086,112.152870 298.038086,99.494781 
	C306.454895,98.863907 310.130768,100.974045 310.742920,106.403221 
	C311.461639,112.778137 308.158569,116.037720 297.913086,117.644722 
	C299.754974,119.296562 300.728149,120.935684 301.888733,121.081322 
	C307.817871,121.825325 314.075165,118.030090 316.462494,112.640137 
	C318.843414,107.264694 317.652710,101.838234 312.437195,96.875092 
M222.602097,75.327911 
	C212.532455,71.221718 207.866943,60.484142 212.104019,50.203793 
	C217.237900,37.747517 229.120972,37.748188 239.761337,43.093193 
	C240.494507,41.931618 241.242294,40.746899 241.979416,39.579082 
	C231.434540,32.105099 216.708755,33.976372 208.822037,43.542065 
	C201.384018,52.563534 202.294891,67.067505 210.491196,74.981277 
	C217.339890,81.593880 233.902069,83.675743 242.366211,75.090759 
	C239.714371,74.726440 238.095428,74.230736 236.518188,74.339584 
	C232.122940,74.642899 227.744995,75.196938 222.602097,75.327911 
M265.693298,112.959312 
	C264.763947,112.168343 263.104950,111.438690 263.032440,110.575722 
	C262.730194,106.978569 262.905212,103.341309 262.905212,99.209808 
	C268.147797,99.209808 272.902405,99.209808 278.056763,99.209808 
	C277.891174,97.303970 277.773926,95.954201 277.663971,94.688698 
	C270.440308,94.688698 263.684326,94.688698 256.649048,94.688698 
	C256.649048,109.259758 256.649048,123.497932 256.649048,138.196945 
	C264.067719,138.196945 271.207001,138.322540 278.331604,138.056091 
	C279.353424,138.017899 280.304504,136.087250 281.288330,135.032394 
	C280.945496,134.608429 280.602692,134.184464 280.259888,133.760498 
	C274.656586,133.760498 269.053284,133.760498 263.182739,133.760498 
	C263.182739,128.247284 263.182739,123.188667 263.182739,117.642982 
	C267.086243,117.642982 270.716949,117.536888 274.338654,117.672424 
	C278.059448,117.811676 278.521606,116.153816 277.223267,112.961433 
	C273.624359,112.961433 270.138092,112.961433 265.693298,112.959312 
M551.998108,74.737221 
	C549.189941,72.705467 546.700073,71.727699 545.761292,76.871094 
	C547.495239,77.844612 549.120483,79.041519 550.938477,79.728477 
	C558.808533,82.702354 567.145630,80.329407 570.401306,74.338417 
	C573.562927,68.520531 571.502625,62.523327 564.328125,56.695774 
	C561.486694,54.387802 558.291626,52.393993 555.918213,49.679508 
	C554.627991,48.203899 553.700745,44.991440 554.460022,43.511921 
	C555.356995,41.764015 558.213135,40.183708 560.290039,40.090454 
	C562.905762,39.973003 565.592346,41.433693 568.553894,42.303204 
	C569.210205,41.587109 570.085938,40.631618 571.959656,38.587265 
	C567.729065,37.223164 564.321716,35.484707 560.773682,35.121708 
	C554.544006,34.484360 549.647522,37.642521 547.871094,42.440399 
	C546.113464,47.187462 547.806702,51.703373 553.013367,55.830437 
	C555.622009,57.898140 558.514160,59.640369 560.943359,61.891045 
	C562.586426,63.413303 564.430237,65.440712 564.752563,67.469643 
	C565.094971,69.624695 564.315063,73.569435 563.023560,74.052025 
	C559.911072,75.215034 556.213867,74.813057 551.998108,74.737221 
M566.015564,100.222115 
	C569.193298,102.428894 569.779785,99.746674 571.884033,96.741783 
	C567.265686,95.630836 563.558289,94.199982 559.774902,93.958305 
	C554.424500,93.616524 549.627686,96.989601 548.220642,101.092979 
	C546.700989,105.524460 548.321106,110.242302 552.752075,113.890259 
	C554.676331,115.474480 556.746033,116.883217 558.762573,118.353951 
	C564.814758,122.768066 566.795471,127.192406 564.458984,131.108871 
	C562.068237,135.116211 556.626770,135.326431 550.155090,131.680176 
	C549.622559,131.380188 549.026855,131.192429 548.334656,130.899216 
	C547.443298,132.134613 546.687805,133.181702 545.950134,134.204010 
	C552.803162,140.715805 563.943726,140.687759 569.295166,134.302124 
	C574.030151,128.652039 572.134766,121.226051 564.363953,115.036949 
	C563.453125,114.311501 562.462646,113.684929 561.562073,112.947823 
	C559.633301,111.369133 557.343018,110.026443 555.957825,108.055153 
	C554.877563,106.517784 554.026855,103.721565 554.730591,102.311569 
	C555.572571,100.624725 558.046448,99.316360 560.060425,98.791870 
	C561.604797,98.389671 563.531921,99.457214 566.015564,100.222115 
M389.478027,94.339363 
	C383.646759,94.339462 377.812012,94.461212 371.985413,94.296593 
	C368.143402,94.188057 367.307861,95.659760 368.885254,99.396530 
	C373.181122,99.396530 377.447205,99.396530 382.134399,99.396530 
	C382.134399,112.439392 382.134399,125.041603 382.134399,137.892899 
	C384.449646,137.892899 386.325806,137.892899 388.695557,137.892899 
	C388.695557,124.984909 388.695557,112.386917 388.695557,99.144531 
	C393.560547,99.144531 397.951935,99.144531 402.136322,99.144531 
	C403.272797,95.428230 402.154114,94.149666 398.961304,94.310417 
	C396.136139,94.452660 393.298126,94.339882 389.478027,94.339363 
M260.077332,23.095242 
	C257.419220,26.110018 254.761124,29.124794 252.103012,32.139568 
	C252.576111,32.671368 253.049210,33.203171 253.522308,33.734970 
	C256.356262,31.581406 259.190216,29.427841 261.833527,27.419151 
	C264.816010,29.435081 267.740326,31.411692 270.664612,33.388302 
	C271.077209,32.793842 271.489777,32.199383 271.902374,31.604925 
	C267.615814,29.422890 267.450897,22.518332 260.077332,23.095242 
z"/>
<path fill="#028BD1" opacity="1.000000" stroke="none" 
	d="
M165.621857,7.236581 
	C166.390427,8.348652 166.956726,9.403569 166.958450,10.459410 
	C167.004211,38.451374 166.993500,66.443428 166.977921,94.435463 
	C166.977570,95.067619 166.809601,95.699677 166.655121,96.787125 
	C129.163589,96.787125 91.786514,96.787125 54.409439,96.787125 
	C67.384239,110.351471 82.761124,119.570534 100.065788,125.924767 
	C78.536453,125.924767 57.007114,125.924767 34.954826,125.924767 
	C34.954826,90.561806 34.954826,55.335228 34.954826,19.772808 
	C28.690771,19.772808 22.942837,19.772808 16.651567,19.772808 
	C16.651567,34.418835 16.651567,48.994549 16.651567,63.997978 
	C13.407785,63.997978 10.687533,63.997978 7.552998,63.997978 
	C7.552998,45.394505 7.552998,26.672632 7.552998,7.179857 
	C60.020329,7.179857 112.588425,7.179857 165.621857,7.236581 
z"/>
<path fill="#57AF39" opacity="1.000000" stroke="none" 
	d="
M88.000206,137.538879 
	C114.462059,137.539154 140.423904,137.539154 166.693665,137.539154 
	C166.693665,147.629868 166.693665,157.341293 166.693665,167.316284 
	C113.647598,167.316284 60.750011,167.316284 7.501835,167.316284 
	C7.501835,157.393158 7.501835,147.697632 7.501835,137.538605 
	C34.265961,137.538605 60.883080,137.538605 88.000206,137.538879 
z"/>
<path fill="#1594D5" opacity="1.000000" stroke="none" 
	d="
M7.111028,102.999954 
	C7.111053,93.376320 7.111053,84.252686 7.111053,74.750938 
	C10.196177,74.750938 13.063322,74.750938 16.282669,74.750938 
	C16.282669,91.739647 16.282669,108.583290 16.282669,125.814713 
	C13.396308,125.814713 10.532700,125.814713 7.111002,125.814713 
	C7.111002,118.355911 7.111002,110.927933 7.111028,102.999954 
z"/>
<path fill="#1594D5" opacity="1.000000" stroke="none" 
	d="
M12.789106,67.965332 
	C14.316188,68.538925 15.410098,69.112396 16.504009,69.685867 
	C15.447221,70.135330 14.399786,70.609344 13.327391,71.017838 
	C13.041854,71.126610 12.664789,71.097878 12.355435,71.024284 
	C10.634959,70.614990 8.922392,70.172447 7.207117,69.741287 
	C8.923389,69.149254 10.639662,68.557228 12.789106,67.965332 
z"/>
<path fill="#F8FCF7" opacity="1.000000" stroke="none" 
	d="
M332.002655,79.795433 
	C330.203186,79.941246 328.403717,80.087059 326.109467,80.272964 
	C326.109467,68.933723 326.109467,57.897438 326.109467,45.405964 
	C320.328217,56.740135 315.276520,66.743706 310.096436,76.680344 
	C309.407166,78.002533 308.066040,78.984924 307.026794,80.124687 
	C306.006500,78.988091 304.662048,78.009644 304.017944,76.689522 
	C299.452026,67.331207 295.029510,57.902931 289.827393,48.533524 
	C289.827393,58.830929 289.827393,69.128334 289.827393,79.817322 
	C287.698792,79.975060 286.131927,80.091171 284.264221,80.229576 
	C284.264221,65.347534 284.264221,50.776649 284.264221,36.267082 
	C289.051575,34.787209 291.642059,36.375313 293.593536,40.897778 
	C297.867798,50.803276 302.734863,60.452980 307.813782,71.164551 
	C310.151794,66.615807 312.141724,62.690098 314.180511,58.789932 
	C317.491638,52.455772 321.059448,46.243034 324.075165,39.772243 
	C325.726349,36.229404 327.904236,35.065933 332.181763,36.293011 
	C332.181763,49.969784 332.181763,63.894325 332.111389,78.537422 
	C332.028198,79.435791 332.015442,79.615608 332.002655,79.795433 
z"/>
<path fill="#F2F9F0" opacity="1.000000" stroke="none" 
	d="
M492.583496,41.392677 
	C499.959076,49.532108 500.164490,58.553326 496.306152,67.702286 
	C492.671265,76.321495 485.116608,79.598785 476.227356,80.011810 
	C471.097900,80.250137 465.948303,80.055077 460.463959,80.055077 
	C460.463959,65.462959 460.463959,51.066605 460.463959,35.842255 
	C471.279694,36.402073 482.554626,33.381058 492.583496,41.392677 
M478.811401,74.922150 
	C489.210388,71.811577 494.079651,61.916370 490.721893,50.717892 
	C488.150665,42.142639 478.382935,38.322361 467.069427,41.423893 
	C467.069427,52.659626 467.069427,63.872116 467.069427,75.030403 
	C470.984833,75.030403 474.463379,75.030403 478.811401,74.922150 
z"/>
<path fill="#F6FBF5" opacity="1.000000" stroke="none" 
	d="
M530.440063,36.245911 
	C542.661865,41.816742 547.547363,53.138424 543.485474,65.742218 
	C539.942383,76.736465 529.306885,82.933922 518.002136,80.591835 
	C505.423248,77.985771 498.021301,65.822113 500.824127,52.363071 
	C503.333679,40.312458 514.840637,32.877327 527.166504,35.356514 
	C528.143311,35.552979 529.098633,35.855747 530.440063,36.245911 
M516.831055,40.832153 
	C504.735931,45.550392 504.871490,65.990326 513.714905,73.214317 
	C518.121155,76.813690 525.199097,77.202347 530.074219,74.109322 
	C536.867554,69.799316 539.719360,58.308475 536.221008,49.341930 
	C533.163757,41.506012 527.286865,38.713585 516.831055,40.832153 
z"/>
<path fill="#F7FBF5" opacity="1.000000" stroke="none" 
	d="
M513.486023,138.906708 
	C501.600403,135.931412 495.398987,128.414902 494.992065,116.967598 
	C494.632202,106.844109 500.099640,98.046570 509.075104,95.147270 
	C517.953369,92.279358 526.315857,93.462379 532.905334,100.524811 
	C540.056458,108.189178 540.502441,117.258057 536.602356,126.505264 
	C533.006714,135.030563 526.124084,139.023270 516.904907,139.014221 
	C515.908875,139.013245 514.912903,138.973831 513.486023,138.906708 
M502.018188,115.579147 
	C503.071136,119.697884 503.358154,124.234253 505.330505,127.851692 
	C509.972748,136.365814 522.114929,136.701538 527.956116,128.924622 
	C532.783447,122.497536 533.645935,111.321503 528.736938,105.069366 
	C526.427795,102.128464 522.332825,99.535492 518.682129,98.908043 
	C509.268829,97.290131 503.343536,103.377792 502.018188,115.579147 
z"/>
<path fill="#F8FCF7" opacity="1.000000" stroke="none" 
	d="
M220.602631,94.413406 
	C222.217834,94.546921 223.374283,94.686859 224.533020,94.804398 
	C237.699753,96.139931 244.850616,103.587036 244.581451,115.688034 
	C244.291580,128.719620 236.047180,137.479507 223.237839,138.088120 
	C217.958954,138.338943 212.658188,138.129669 207.100891,138.129669 
	C207.100891,123.464096 207.100891,109.221909 207.100891,94.409439 
	C211.559387,94.409439 215.852158,94.409439 220.602631,94.413406 
M236.842697,109.382805 
	C232.840546,100.423012 226.601624,97.814346 213.409912,99.661552 
	C213.409912,110.974007 213.409912,122.302505 213.409912,133.944443 
	C216.787384,133.772644 219.788574,133.852295 222.716934,133.428543 
	C232.449188,132.020218 236.724167,127.388618 237.308563,117.668755 
	C237.456818,115.202843 237.104279,112.706833 236.842697,109.382805 
z"/>
<path fill="#F9FCF8" opacity="1.000000" stroke="none" 
	d="
M447.990082,126.981918 
	C447.990082,116.004402 447.990082,105.524841 447.990082,93.987144 
	C455.890045,94.531418 463.607697,94.264877 470.967407,95.760063 
	C481.609650,97.922096 486.765259,106.382118 485.840485,117.871117 
	C484.954865,128.873611 477.518616,136.845123 466.432373,137.878250 
	C460.523834,138.428864 454.521759,137.975891 447.990082,137.975891 
	C447.990082,134.373886 447.990082,130.926880 447.990082,126.981918 
M475.487366,127.846001 
	C480.134888,119.658356 480.176331,110.068390 475.588806,104.374054 
	C471.738739,99.595154 462.149902,97.635826 454.444275,100.053558 
	C454.444275,111.122864 454.444275,122.192169 454.444275,133.696472 
	C462.029602,133.926346 469.295593,134.429306 475.487366,127.846001 
z"/>
<path fill="#F3F9F1" opacity="1.000000" stroke="none" 
	d="
M404.033081,79.203201 
	C401.804443,79.722305 399.575775,80.241409 396.998871,80.841629 
	C394.324585,75.885094 391.380585,71.068962 389.084656,65.961494 
	C387.387115,62.185238 385.044250,61.075283 380.770233,62.421398 
	C380.770233,67.962662 380.770233,73.702705 380.770233,79.811951 
	C378.384888,79.811951 376.519287,79.811951 374.421051,79.811951 
	C374.316284,78.768921 374.136780,77.806618 374.135468,76.844070 
	C374.117035,63.403934 374.122955,49.963768 374.122955,36.150024 
	C380.071411,36.150024 385.758148,35.438221 391.189545,36.312565 
	C399.895203,37.714005 402.946106,48.662437 397.101868,56.171413 
	C395.993896,57.595013 394.539581,58.749081 392.895172,60.373104 
	C396.378510,66.459358 399.889832,72.594528 403.720703,78.966553 
	C404.040253,79.203400 404.033081,79.203194 404.033081,79.203201 
M391.511475,42.997433 
	C388.426331,39.718288 384.731384,40.491871 380.906494,41.111729 
	C380.906494,46.494991 380.906494,51.569817 380.906494,56.601570 
	C390.637115,57.948872 394.966858,52.748436 391.511475,42.997433 
z"/>
<path fill="#F2F9F0" opacity="1.000000" stroke="none" 
	d="
M358.083923,94.381721 
	C359.408051,95.411903 361.056519,96.428551 361.075745,97.475143 
	C361.240662,106.451813 361.378510,115.445450 360.991882,124.411041 
	C360.624603,132.927155 354.580994,138.593704 346.246826,139.022720 
	C335.161255,139.593384 328.577209,135.651123 327.748077,126.170113 
	C326.854584,115.953178 327.546051,105.597633 327.546051,94.839783 
	C329.171814,94.839783 331.032471,94.839783 333.627258,94.839783 
	C333.627258,101.742615 333.596222,108.668510 333.641205,115.593918 
	C333.661713,118.749886 333.615601,121.930199 333.980530,125.054993 
	C334.718536,131.374588 338.579956,134.725220 344.612366,134.625443 
	C350.489197,134.528244 354.792480,130.449661 354.998169,124.075356 
	C355.271637,115.600731 355.070312,107.111473 355.140167,98.629051 
	C355.155151,96.809059 354.315308,94.309593 358.083923,94.381721 
z"/>
<path fill="#F6FBF5" opacity="1.000000" stroke="none" 
	d="
M437.175842,130.869629 
	C438.022736,133.262131 438.747955,135.268570 439.595184,137.612640 
	C435.224030,138.682953 431.998260,138.989639 430.827942,133.583511 
	C430.233307,130.836548 428.853119,126.514725 427.087555,126.106400 
	C422.521820,125.050446 417.373566,125.056335 412.817322,126.143990 
	C411.032013,126.570183 409.837158,130.905838 409.030609,133.653915 
	C407.870941,137.605118 405.806976,139.215332 401.270844,137.701706 
	C404.309540,130.122894 407.336609,122.530403 410.398010,114.951775 
	C412.636200,109.410980 414.754547,103.811287 417.283173,98.404724 
	C418.041534,96.783257 419.835388,95.109352 421.479279,94.668053 
	C422.286102,94.451469 424.363251,96.792015 424.962646,98.327705 
	C429.125916,108.994507 433.052032,119.753876 437.175842,130.869629 
M421.201050,104.773277 
	C421.037720,104.136070 420.874420,103.498863 420.466217,101.906090 
	C418.099121,108.688210 416.023254,114.636017 413.865417,120.818596 
	C418.272827,120.818596 422.066254,120.818596 426.387573,120.818596 
	C424.674683,115.489639 423.060394,110.467461 421.201050,104.773277 
z"/>
<path fill="#F9FCF8" opacity="1.000000" stroke="none" 
	d="
M404.297546,79.580872 
	C404.033081,79.203194 404.040253,79.203400 404.041321,79.219467 
	C409.399994,66.013519 414.677795,52.757870 420.220215,39.613800 
	C420.882812,38.042488 422.871185,36.346836 424.461578,36.099117 
	C425.461243,35.943401 427.414459,38.169304 428.001129,39.689121 
	C433.120544,52.951565 438.027832,66.295891 443.005707,79.636314 
	C437.670990,81.314964 434.554993,79.906914 433.817810,74.520416 
	C432.996277,68.517738 429.710510,66.617233 423.631714,67.021393 
	C414.736145,67.612846 414.492035,67.103821 411.751801,75.553909 
	C410.476746,79.485855 408.511139,81.014114 404.297546,79.580872 
M424.155823,45.876904 
	C424.001343,45.252216 423.846863,44.627525 423.452850,43.034203 
	C421.053314,49.866169 418.952942,55.846325 416.745667,62.130905 
	C421.207550,62.130905 425.139313,62.130905 429.447021,62.130905 
	C427.631012,56.564278 425.996185,51.553165 424.155823,45.876904 
z"/>
<path fill="#F9FCF8" opacity="1.000000" stroke="none" 
	d="
M332.426544,79.897034 
	C332.015442,79.615608 332.028198,79.435791 332.066925,78.986565 
	C336.032501,69.626694 340.004089,60.549889 343.898041,51.439903 
	C345.789154,47.015636 347.408752,42.470444 349.438904,38.114033 
	C349.921814,37.077732 351.497955,36.130207 352.682465,35.971424 
	C353.673035,35.838634 355.489563,36.663849 355.808258,37.497601 
	C361.130707,51.420681 366.274719,65.411957 371.528320,79.576187 
	C366.629639,81.039642 363.910797,80.180603 362.438507,75.105652 
	C360.109528,67.077927 359.781952,67.172966 351.366180,67.172966 
	C348.721741,67.172966 346.077301,67.172966 343.367188,67.172966 
	C342.256714,70.076324 340.894775,72.631996 340.325806,75.353455 
	C339.403046,79.767014 336.925629,80.998795 332.426544,79.897034 
M345.833252,62.317631 
	C349.825165,62.317631 353.817078,62.317631 358.132324,62.317631 
	C355.982269,55.811909 354.040802,49.937313 351.862946,43.347427 
	C349.555603,49.981915 347.527466,55.813519 345.833252,62.317631 
z"/>
<path fill="#F9FCF8" opacity="1.000000" stroke="none" 
	d="
M252.935928,53.895294 
	C255.008636,48.761913 256.793732,43.913445 259.018951,39.276184 
	C259.710724,37.834579 261.499298,36.274239 262.966522,36.070568 
	C263.989838,35.928524 265.906250,37.779537 266.424164,39.125038 
	C271.551392,52.445297 276.469818,65.845940 281.490540,79.339951 
	C276.681244,81.219521 273.722046,80.481102 272.612213,75.229454 
	C272.038513,72.514542 270.716217,69.957817 269.673523,67.173004 
	C268.166840,67.173004 266.814911,67.350937 265.524597,67.144188 
	C256.997864,65.777870 250.751205,67.535988 249.259689,77.544785 
	C249.055267,78.916512 245.643860,79.810326 243.717239,80.925407 
	C243.324219,80.452278 242.931213,79.979149 242.538193,79.506020 
	C245.964813,71.091232 249.391434,62.676449 252.935928,53.895294 
M260.695587,62.627232 
	C263.076691,62.627232 265.457825,62.627232 268.309509,62.627232 
	C266.051239,55.902737 264.112762,50.130558 261.839020,43.360104 
	C259.404510,50.457615 257.393402,56.320679 255.230347,62.626827 
	C257.209412,62.626827 258.524780,62.626827 260.695587,62.627232 
z"/>
<path fill="#F0F8EE" opacity="1.000000" stroke="none" 
	d="
M312.762817,97.069168 
	C317.652710,101.838234 318.843414,107.264694 316.462494,112.640137 
	C314.075165,118.030090 307.817871,121.825325 301.888733,121.081322 
	C300.728149,120.935684 299.754974,119.296562 297.913086,117.644722 
	C308.158569,116.037720 311.461639,112.778137 310.742920,106.403221 
	C310.130768,100.974045 306.454895,98.863907 298.038086,99.494781 
	C298.038086,112.152870 298.038086,124.873169 298.038086,137.891388 
	C295.700653,137.891388 293.951202,137.891388 291.780029,137.891388 
	C291.780029,123.690453 291.780029,109.486603 291.780029,94.497955 
	C298.705292,94.512207 305.754211,93.315468 312.762817,97.069168 
z"/>
<path fill="#F6FBF5" opacity="1.000000" stroke="none" 
	d="
M222.981155,75.489944 
	C227.744995,75.196938 232.122940,74.642899 236.518188,74.339584 
	C238.095428,74.230736 239.714371,74.726440 242.366211,75.090759 
	C233.902069,83.675743 217.339890,81.593880 210.491196,74.981277 
	C202.294891,67.067505 201.384018,52.563534 208.822037,43.542065 
	C216.708755,33.976372 231.434540,32.105099 241.979416,39.579082 
	C241.242294,40.746899 240.494507,41.931618 239.761337,43.093193 
	C229.120972,37.748188 217.237900,37.747517 212.104019,50.203793 
	C207.866943,60.484142 212.532455,71.221718 222.981155,75.489944 
z"/>
<path fill="#EFF8EC" opacity="1.000000" stroke="none" 
	d="
M266.172577,112.960373 
	C270.138092,112.961433 273.624359,112.961433 277.223267,112.961433 
	C278.521606,116.153816 278.059448,117.811676 274.338654,117.672424 
	C270.716949,117.536888 267.086243,117.642982 263.182739,117.642982 
	C263.182739,123.188667 263.182739,128.247284 263.182739,133.760498 
	C269.053284,133.760498 274.656586,133.760498 280.259888,133.760498 
	C280.602692,134.184464 280.945496,134.608429 281.288330,135.032394 
	C280.304504,136.087250 279.353424,138.017899 278.331604,138.056091 
	C271.207001,138.322540 264.067719,138.196945 256.649048,138.196945 
	C256.649048,123.497932 256.649048,109.259758 256.649048,94.688698 
	C263.684326,94.688698 270.440308,94.688698 277.663971,94.688698 
	C277.773926,95.954201 277.891174,97.303970 278.056763,99.209808 
	C272.902405,99.209808 268.147797,99.209808 262.905212,99.209808 
	C262.905212,103.341309 262.730194,106.978569 263.032440,110.575722 
	C263.104950,111.438690 264.763947,112.168343 266.172577,112.960373 
z"/>
<path fill="#F6FBF5" opacity="1.000000" stroke="none" 
	d="
M552.375244,74.889732 
	C556.213867,74.813057 559.911072,75.215034 563.023560,74.052025 
	C564.315063,73.569435 565.094971,69.624695 564.752563,67.469643 
	C564.430237,65.440712 562.586426,63.413303 560.943359,61.891045 
	C558.514160,59.640369 555.622009,57.898140 553.013367,55.830437 
	C547.806702,51.703373 546.113464,47.187462 547.871094,42.440399 
	C549.647522,37.642521 554.544006,34.484360 560.773682,35.121708 
	C564.321716,35.484707 567.729065,37.223164 571.959656,38.587265 
	C570.085938,40.631618 569.210205,41.587109 568.553894,42.303204 
	C565.592346,41.433693 562.905762,39.973003 560.290039,40.090454 
	C558.213135,40.183708 555.356995,41.764015 554.460022,43.511921 
	C553.700745,44.991440 554.627991,48.203899 555.918213,49.679508 
	C558.291626,52.393993 561.486694,54.387802 564.328125,56.695774 
	C571.502625,62.523327 573.562927,68.520531 570.401306,74.338417 
	C567.145630,80.329407 558.808533,82.702354 550.938477,79.728477 
	C549.120483,79.041519 547.495239,77.844612 545.761292,76.871094 
	C546.700073,71.727699 549.189941,72.705467 552.375244,74.889732 
z"/>
<path fill="#F6FBF4" opacity="1.000000" stroke="none" 
	d="
M565.652222,100.046600 
	C563.531921,99.457214 561.604797,98.389671 560.060425,98.791870 
	C558.046448,99.316360 555.572571,100.624725 554.730591,102.311569 
	C554.026855,103.721565 554.877563,106.517784 555.957825,108.055153 
	C557.343018,110.026443 559.633301,111.369133 561.562073,112.947823 
	C562.462646,113.684929 563.453125,114.311501 564.363953,115.036949 
	C572.134766,121.226051 574.030151,128.652039 569.295166,134.302124 
	C563.943726,140.687759 552.803162,140.715805 545.950134,134.204010 
	C546.687805,133.181702 547.443298,132.134613 548.334656,130.899216 
	C549.026855,131.192429 549.622559,131.380188 550.155090,131.680176 
	C556.626770,135.326431 562.068237,135.116211 564.458984,131.108871 
	C566.795471,127.192406 564.814758,122.768066 558.762573,118.353951 
	C556.746033,116.883217 554.676331,115.474480 552.752075,113.890259 
	C548.321106,110.242302 546.700989,105.524460 548.220642,101.092979 
	C549.627686,96.989601 554.424500,93.616524 559.774902,93.958305 
	C563.558289,94.199982 567.265686,95.630836 571.884033,96.741783 
	C569.779785,99.746674 569.193298,102.428894 565.652222,100.046600 
z"/>
<path fill="#ECF6E9" opacity="1.000000" stroke="none" 
	d="
M389.971924,94.339531 
	C393.298126,94.339882 396.136139,94.452660 398.961304,94.310417 
	C402.154114,94.149666 403.272797,95.428230 402.136322,99.144531 
	C397.951935,99.144531 393.560547,99.144531 388.695557,99.144531 
	C388.695557,112.386917 388.695557,124.984909 388.695557,137.892899 
	C386.325806,137.892899 384.449646,137.892899 382.134399,137.892899 
	C382.134399,125.041603 382.134399,112.439392 382.134399,99.396530 
	C377.447205,99.396530 373.181122,99.396530 368.885254,99.396530 
	C367.307861,95.659760 368.143402,94.188057 371.985413,94.296593 
	C377.812012,94.461212 383.646759,94.339462 389.971924,94.339531 
z"/>
<path fill="#F3F9F1" opacity="1.000000" stroke="none" 
	d="
M260.462524,23.042942 
	C267.450897,22.518332 267.615814,29.422890 271.902374,31.604925 
	C271.489777,32.199383 271.077209,32.793842 270.664612,33.388302 
	C267.740326,31.411692 264.816010,29.435081 261.833527,27.419151 
	C259.190216,29.427841 256.356262,31.581406 253.522308,33.734970 
	C253.049210,33.203171 252.576111,32.671368 252.103012,32.139568 
	C254.761124,29.124794 257.419220,26.110018 260.462524,23.042942 
z"/>
<path fill="#52AD33" opacity="1.000000" stroke="none" 
	d="
M478.376648,74.976273 
	C474.463379,75.030403 470.984833,75.030403 467.069427,75.030403 
	C467.069427,63.872116 467.069427,52.659626 467.069427,41.423893 
	C478.382935,38.322361 488.150665,42.142639 490.721893,50.717892 
	C494.079651,61.916370 489.210388,71.811577 478.376648,74.976273 
z"/>
<path fill="#53AE34" opacity="1.000000" stroke="none" 
	d="
M517.193359,40.652596 
	C527.286865,38.713585 533.163757,41.506012 536.221008,49.341930 
	C539.719360,58.308475 536.867554,69.799316 530.074219,74.109322 
	C525.199097,77.202347 518.121155,76.813690 513.714905,73.214317 
	C504.871490,65.990326 504.735931,45.550392 517.193359,40.652596 
z"/>
<path fill="#53AE34" opacity="1.000000" stroke="none" 
	d="
M502.018982,115.148926 
	C503.343536,103.377792 509.268829,97.290131 518.682129,98.908043 
	C522.332825,99.535492 526.427795,102.128464 528.736938,105.069366 
	C533.645935,111.321503 532.783447,122.497536 527.956116,128.924622 
	C522.114929,136.701538 509.972748,136.365814 505.330505,127.851692 
	C503.358154,124.234253 503.071136,119.697884 502.018982,115.148926 
z"/>
<path fill="#53AE35" opacity="1.000000" stroke="none" 
	d="
M236.912277,109.803726 
	C237.104279,112.706833 237.456818,115.202843 237.308563,117.668755 
	C236.724167,127.388618 232.449188,132.020218 222.716934,133.428543 
	C219.788574,133.852295 216.787384,133.772644 213.409912,133.944443 
	C213.409912,122.302505 213.409912,110.974007 213.409912,99.661552 
	C226.601624,97.814346 232.840546,100.423012 236.912277,109.803726 
z"/>
<path fill="#55AF37" opacity="1.000000" stroke="none" 
	d="
M475.253296,128.141602 
	C469.295593,134.429306 462.029602,133.926346 454.444275,133.696472 
	C454.444275,122.192169 454.444275,111.122864 454.439117,100.052505 
	C462.149902,97.635826 471.738739,99.595154 475.588806,104.374054 
	C480.176331,110.068390 480.134888,119.658356 475.253296,128.141602 
z"/>
<path fill="#53AE35" opacity="1.000000" stroke="none" 
	d="
M391.746704,43.338768 
	C394.966858,52.748436 390.637115,57.948872 380.906494,56.601570 
	C380.906494,51.569817 380.906494,46.494991 380.906494,41.111729 
	C384.731384,40.491871 388.426331,39.718288 391.746704,43.338768 
z"/>
<path fill="#59B13B" opacity="1.000000" stroke="none" 
	d="
M421.323578,105.109283 
	C423.060394,110.467461 424.674683,115.489639 426.387573,120.818596 
	C422.066254,120.818596 418.272827,120.818596 413.865417,120.818596 
	C416.023254,114.636017 418.099121,108.688210 420.466217,101.906090 
	C420.874420,103.498863 421.037720,104.136070 421.323578,105.109283 
z"/>
<path fill="#60B444" opacity="1.000000" stroke="none" 
	d="
M424.258606,46.209476 
	C425.996185,51.553165 427.631012,56.564278 429.447021,62.130905 
	C425.139313,62.130905 421.207550,62.130905 416.745667,62.130905 
	C418.952942,55.846325 421.053314,49.866169 423.452850,43.034203 
	C423.846863,44.627525 424.001343,45.252216 424.258606,46.209476 
z"/>
<path fill="#60B444" opacity="1.000000" stroke="none" 
	d="
M345.666290,61.981377 
	C347.527466,55.813519 349.555603,49.981915 351.862946,43.347427 
	C354.040802,49.937313 355.982269,55.811909 358.132324,62.317631 
	C353.817078,62.317631 349.825165,62.317631 345.666290,61.981377 
z"/>
<path fill="#61B545" opacity="1.000000" stroke="none" 
	d="
M260.267883,62.627029 
	C258.524780,62.626827 257.209412,62.626827 255.230347,62.626827 
	C257.393402,56.320679 259.404510,50.457615 261.839020,43.360104 
	C264.112762,50.130558 266.051239,55.902737 268.309509,62.627232 
	C265.457825,62.627232 263.076691,62.627232 260.267883,62.627029 
z"/>
</svg>